<?xml version="1.0" encoding="UTF-8" standalone="no"?>
<?xml-stylesheet href="styles.css" type="text/css"?>
<!DOCTYPE svg PUBLIC "-//W3C//DTD SVG 1.1//EN"
 "http://www.w3.org/Graphics/SVG/1.1/DTD/svg11.dtd">
<!-- Generated by graphviz version 2.43.0 (0)
 -->
<!-- Title: CombLogic Pages: 1 -->
<svg width="600pt" height="315pt"
 viewBox="0.00 0.00 600.00 315.00" xmlns="http://www.w3.org/2000/svg" xmlns:xlink="http://www.w3.org/1999/xlink">
<g id="graph0" class="graph" transform="scale(1 1) rotate(0) translate(4 311)">
<title>CombLogic</title>
<polygon fill="white" stroke="transparent" points="-4,4 -4,-311 596,-311 596,4 -4,4"/>
<g id="clust1" class="cluster">
<title>cluster_CombLogic</title>
<polygon fill="#fff8dc" stroke="black" points="8,-8 8,-299 584,-299 584,-8 8,-8"/>
<text text-anchor="middle" x="296" y="-283.8" font-family="Times,serif" font-size="14.00">CombLogic</text>
</g>
<!-- cluster_CombLogic_clock -->
<g id="node1" class="node">
<title>cluster_CombLogic_clock</title>
<polygon fill="#cccccc" stroke="black" points="70,-268 16,-268 16,-232 70,-232 70,-268"/>
<text text-anchor="middle" x="43" y="-246.3" font-family="Times,serif" font-size="14.00">clock</text>
</g>
<!-- cluster_CombLogic_reset -->
<g id="node2" class="node">
<title>cluster_CombLogic_reset</title>
<polygon fill="#cccccc" stroke="black" points="70,-214 16,-214 16,-178 70,-178 70,-214"/>
<text text-anchor="middle" x="43" y="-192.3" font-family="Times,serif" font-size="14.00">reset</text>
</g>
<!-- cluster_CombLogic_io_a -->
<g id="node3" class="node">
<title>cluster_CombLogic_io_a</title>
<polygon fill="#cccccc" stroke="black" points="70,-160 16,-160 16,-124 70,-124 70,-160"/>
<text text-anchor="middle" x="43" y="-138.3" font-family="Times,serif" font-size="14.00">io_a</text>
</g>
<!-- op_and_1 -->
<g id="node8" class="node">
<title>op_and_1</title>
<polygon fill="#d8bfd8" stroke="transparent" points="114,-76 114,-126 206,-126 206,-76 114,-76"/>
<polygon fill="none" stroke="black" points="114,-101 114,-126 137,-126 137,-101 114,-101"/>
<text text-anchor="start" x="119" y="-109.8" font-family="Times,serif" font-size="14.00">●</text>
<polygon fill="none" stroke="black" points="137,-76 137,-126 183,-126 183,-76 137,-76"/>
<text text-anchor="start" x="142" y="-97.3" font-family="Times,serif" font-size="14.00"> and </text>
<polygon fill="none" stroke="black" points="183,-76 183,-126 206,-126 206,-76 183,-76"/>
<text text-anchor="start" x="188" y="-97.3" font-family="Times,serif" font-size="14.00">●</text>
<polygon fill="none" stroke="black" points="114,-76 114,-101 137,-101 137,-76 114,-76"/>
<text text-anchor="start" x="119" y="-84.8" font-family="Times,serif" font-size="14.00">●</text>
</g>
<!-- cluster_CombLogic_io_a&#45;&gt;op_and_1 -->
<g id="edge4" class="edge">
<title>cluster_CombLogic_io_a&#45;&gt;op_and_1:in1</title>
<path fill="none" stroke="black" d="M70.21,-125.87C79.87,-121.06 91.29,-116.59 102.85,-114.81"/>
<polygon fill="black" stroke="black" points="103.31,-118.29 113,-114 102.75,-111.31 103.31,-118.29"/>
</g>
<!-- cluster_CombLogic_io_b -->
<g id="node4" class="node">
<title>cluster_CombLogic_io_b</title>
<polygon fill="#cccccc" stroke="black" points="70,-106 16,-106 16,-70 70,-70 70,-106"/>
<text text-anchor="middle" x="43" y="-84.3" font-family="Times,serif" font-size="14.00">io_b</text>
</g>
<!-- cluster_CombLogic_io_b&#45;&gt;op_and_1 -->
<g id="edge2" class="edge">
<title>cluster_CombLogic_io_b&#45;&gt;op_and_1:in2</title>
<path fill="none" stroke="black" d="M70.21,-88C80.08,-88 91.63,-88 102.85,-88"/>
<polygon fill="black" stroke="black" points="103,-91.5 113,-88 103,-84.5 103,-91.5"/>
</g>
<!-- cluster_CombLogic_io_c -->
<g id="node5" class="node">
<title>cluster_CombLogic_io_c</title>
<polygon fill="#cccccc" stroke="black" points="70,-52 16,-52 16,-16 70,-16 70,-52"/>
<text text-anchor="middle" x="43" y="-30.3" font-family="Times,serif" font-size="14.00">io_c</text>
</g>
<!-- op_not_2 -->
<g id="node10" class="node">
<title>op_not_2</title>
<polygon fill="#d8bfd8" stroke="transparent" points="115.5,-22.5 115.5,-47.5 204.5,-47.5 204.5,-22.5 115.5,-22.5"/>
<polygon fill="none" stroke="black" points="116,-22 116,-47 139,-47 139,-22 116,-22"/>
<text text-anchor="start" x="121" y="-30.8" font-family="Times,serif" font-size="14.00">●</text>
<polygon fill="none" stroke="black" points="139,-22 139,-47 182,-47 182,-22 139,-22"/>
<text text-anchor="start" x="144" y="-30.8" font-family="Times,serif" font-size="14.00"> not </text>
<polygon fill="none" stroke="black" points="182,-22 182,-47 205,-47 205,-22 182,-22"/>
<text text-anchor="start" x="187" y="-30.8" font-family="Times,serif" font-size="14.00">●</text>
</g>
<!-- cluster_CombLogic_io_c&#45;&gt;op_not_2 -->
<g id="edge3" class="edge">
<title>cluster_CombLogic_io_c&#45;&gt;op_not_2:in1</title>
<path fill="none" stroke="black" d="M70.3,-34C80.65,-34 92.88,-34 104.74,-34"/>
<polygon fill="black" stroke="black" points="105,-37.5 115,-34 105,-30.5 105,-37.5"/>
</g>
<!-- cluster_CombLogic_io_out -->
<g id="node6" class="node">
<title>cluster_CombLogic_io_out</title>
<polygon fill="#e0ffff" stroke="black" points="576,-86 517,-86 517,-50 576,-50 576,-86"/>
<text text-anchor="middle" x="546.5" y="-64.3" font-family="Times,serif" font-size="14.00">io_out</text>
</g>
<!-- cluster_CombLogic__io_out_T -->
<g id="node7" class="node">
<title>cluster_CombLogic__io_out_T</title>
<polygon fill="none" stroke="black" points="340,-115 258,-115 258,-79 340,-79 340,-115"/>
<text text-anchor="middle" x="299" y="-93.3" font-family="Times,serif" font-size="14.00">_io_out_T</text>
</g>
<!-- op_or_3 -->
<g id="node11" class="node">
<title>op_or_3</title>
<polygon fill="#d8bfd8" stroke="transparent" points="392,-43 392,-93 473,-93 473,-43 392,-43"/>
<polygon fill="none" stroke="black" points="392.5,-68 392.5,-93 415.5,-93 415.5,-68 392.5,-68"/>
<text text-anchor="start" x="397.5" y="-76.8" font-family="Times,serif" font-size="14.00">●</text>
<polygon fill="none" stroke="black" points="415.5,-43 415.5,-93 450.5,-93 450.5,-43 415.5,-43"/>
<text text-anchor="start" x="420.5" y="-64.3" font-family="Times,serif" font-size="14.00"> or </text>
<polygon fill="none" stroke="black" points="450.5,-43 450.5,-93 473.5,-93 473.5,-43 450.5,-43"/>
<text text-anchor="start" x="455.5" y="-64.3" font-family="Times,serif" font-size="14.00">●</text>
<polygon fill="none" stroke="black" points="392.5,-43 392.5,-68 415.5,-68 415.5,-43 392.5,-43"/>
<text text-anchor="start" x="397.5" y="-51.8" font-family="Times,serif" font-size="14.00">●</text>
</g>
<!-- cluster_CombLogic__io_out_T&#45;&gt;op_or_3 -->
<g id="edge6" class="edge">
<title>cluster_CombLogic__io_out_T&#45;&gt;op_or_3:in1</title>
<path fill="none" stroke="black" d="M340.27,-86.87C353.03,-84.31 367.46,-82.07 381.44,-81.29"/>
<polygon fill="black" stroke="black" points="381.61,-84.79 391.5,-81 381.4,-77.79 381.61,-84.79"/>
</g>
<!-- op_and_1&#45;&gt;cluster_CombLogic__io_out_T -->
<g id="edge1" class="edge">
<title>op_and_1:out&#45;&gt;cluster_CombLogic__io_out_T</title>
<path fill="none" stroke="black" d="M207,-101C220.1,-101 234.25,-100.58 247.41,-100.01"/>
<polygon fill="black" stroke="black" points="247.87,-103.5 257.7,-99.53 247.55,-96.5 247.87,-103.5"/>
</g>
<!-- cluster_CombLogic__io_out_T_1 -->
<g id="node9" class="node">
<title>cluster_CombLogic__io_out_T_1</title>
<polygon fill="none" stroke="black" points="348,-58 250,-58 250,-22 348,-22 348,-58"/>
<text text-anchor="middle" x="299" y="-36.3" font-family="Times,serif" font-size="14.00">_io_out_T_1</text>
</g>
<!-- cluster_CombLogic__io_out_T_1&#45;&gt;op_or_3 -->
<g id="edge7" class="edge">
<title>cluster_CombLogic__io_out_T_1&#45;&gt;op_or_3:in2</title>
<path fill="none" stroke="black" d="M348.2,-50.9C358.84,-52.68 370.26,-54.14 381.39,-54.72"/>
<polygon fill="black" stroke="black" points="381.41,-58.23 391.5,-55 381.6,-51.23 381.41,-58.23"/>
</g>
<!-- op_not_2&#45;&gt;cluster_CombLogic__io_out_T_1 -->
<g id="edge8" class="edge">
<title>op_not_2:out&#45;&gt;cluster_CombLogic__io_out_T_1</title>
<path fill="none" stroke="black" d="M206,-34C216.91,-34 228.53,-34.43 239.7,-35.05"/>
<polygon fill="black" stroke="black" points="239.62,-38.55 249.81,-35.67 240.05,-31.56 239.62,-38.55"/>
</g>
<!-- op_or_3&#45;&gt;cluster_CombLogic_io_out -->
<g id="edge5" class="edge">
<title>op_or_3:out&#45;&gt;cluster_CombLogic_io_out</title>
<path fill="none" stroke="black" d="M474.5,-68C484.95,-68 496.26,-68 506.72,-68"/>
<polygon fill="black" stroke="black" points="506.83,-71.5 516.83,-68 506.83,-64.5 506.83,-71.5"/>
</g>
</g>
</svg>
