<?xml version="1.0" encoding="UTF-8" standalone="no"?>
<?xml-stylesheet href="styles.css" type="text/css"?>
<!DOCTYPE svg PUBLIC "-//W3C//DTD SVG 1.1//EN"
 "http://www.w3.org/Graphics/SVG/1.1/DTD/svg11.dtd">
<!-- Generated by graphviz version 2.43.0 (0)
 -->
<!-- Title: AndOrRunTime Pages: 1 -->
<svg width="913pt" height="315pt"
 viewBox="0.00 0.00 913.00 315.00" xmlns="http://www.w3.org/2000/svg" xmlns:xlink="http://www.w3.org/1999/xlink">
<g id="graph0" class="graph" transform="scale(1 1) rotate(0) translate(4 311)">
<title>AndOrRunTime</title>
<polygon fill="white" stroke="transparent" points="-4,4 -4,-311 909,-311 909,4 -4,4"/>
<g id="clust1" class="cluster">
<title>cluster_AndOrRunTime</title>
<polygon fill="#fff8dc" stroke="black" points="8,-8 8,-299 897,-299 897,-8 8,-8"/>
<text text-anchor="middle" x="452.5" y="-283.8" font-family="Times,serif" font-size="14.00">AndOrRunTime</text>
</g>
<!-- cluster_AndOrRunTime_clock -->
<g id="node1" class="node">
<title>cluster_AndOrRunTime_clock</title>
<polygon fill="#cccccc" stroke="black" points="87.5,-268 33.5,-268 33.5,-232 87.5,-232 87.5,-268"/>
<text text-anchor="middle" x="60.5" y="-246.3" font-family="Times,serif" font-size="14.00">clock</text>
</g>
<!-- cluster_AndOrRunTime_reset -->
<g id="node2" class="node">
<title>cluster_AndOrRunTime_reset</title>
<polygon fill="#cccccc" stroke="black" points="87.5,-214 33.5,-214 33.5,-178 87.5,-178 87.5,-214"/>
<text text-anchor="middle" x="60.5" y="-192.3" font-family="Times,serif" font-size="14.00">reset</text>
</g>
<!-- cluster_AndOrRunTime_io_a -->
<g id="node3" class="node">
<title>cluster_AndOrRunTime_io_a</title>
<polygon fill="#cccccc" stroke="black" points="87.5,-160 33.5,-160 33.5,-124 87.5,-124 87.5,-160"/>
<text text-anchor="middle" x="60.5" y="-138.3" font-family="Times,serif" font-size="14.00">io_a</text>
</g>
<!-- op_and_6 -->
<g id="node8" class="node">
<title>op_and_6</title>
<polygon fill="#d8bfd8" stroke="transparent" points="149,-171 149,-221 241,-221 241,-171 149,-171"/>
<polygon fill="none" stroke="black" points="149,-196 149,-221 172,-221 172,-196 149,-196"/>
<text text-anchor="start" x="154" y="-204.8" font-family="Times,serif" font-size="14.00">●</text>
<polygon fill="none" stroke="black" points="172,-171 172,-221 218,-221 218,-171 172,-171"/>
<text text-anchor="start" x="177" y="-192.3" font-family="Times,serif" font-size="14.00"> and </text>
<polygon fill="none" stroke="black" points="218,-171 218,-221 241,-221 241,-171 218,-171"/>
<text text-anchor="start" x="223" y="-192.3" font-family="Times,serif" font-size="14.00">●</text>
<polygon fill="none" stroke="black" points="149,-171 149,-196 172,-196 172,-171 149,-171"/>
<text text-anchor="start" x="154" y="-179.8" font-family="Times,serif" font-size="14.00">●</text>
</g>
<!-- cluster_AndOrRunTime_io_a&#45;&gt;op_and_6 -->
<g id="edge2" class="edge">
<title>cluster_AndOrRunTime_io_a&#45;&gt;op_and_6:in1</title>
<path fill="none" stroke="black" d="M87.81,-157.19C93.62,-160.85 99.63,-164.9 105,-169 122.5,-182.37 122.5,-201.65 137.75,-207.35"/>
<polygon fill="black" stroke="black" points="137.57,-210.87 148,-209 138.68,-203.96 137.57,-210.87"/>
</g>
<!-- op_or_8 -->
<g id="node12" class="node">
<title>op_or_8</title>
<polygon fill="#d8bfd8" stroke="transparent" points="154.5,-95 154.5,-145 235.5,-145 235.5,-95 154.5,-95"/>
<polygon fill="none" stroke="black" points="155,-120 155,-145 178,-145 178,-120 155,-120"/>
<text text-anchor="start" x="160" y="-128.8" font-family="Times,serif" font-size="14.00">●</text>
<polygon fill="none" stroke="black" points="178,-95 178,-145 213,-145 213,-95 178,-95"/>
<text text-anchor="start" x="183" y="-116.3" font-family="Times,serif" font-size="14.00"> or </text>
<polygon fill="none" stroke="black" points="213,-95 213,-145 236,-145 236,-95 213,-95"/>
<text text-anchor="start" x="218" y="-116.3" font-family="Times,serif" font-size="14.00">●</text>
<polygon fill="none" stroke="black" points="155,-95 155,-120 178,-120 178,-95 155,-95"/>
<text text-anchor="start" x="160" y="-103.8" font-family="Times,serif" font-size="14.00">●</text>
</g>
<!-- cluster_AndOrRunTime_io_a&#45;&gt;op_or_8 -->
<g id="edge3" class="edge">
<title>cluster_AndOrRunTime_io_a&#45;&gt;op_or_8:in1</title>
<path fill="none" stroke="black" d="M87.75,-138.08C103.49,-136.01 124.2,-133.78 143.85,-133.17"/>
<polygon fill="black" stroke="black" points="144.06,-136.66 154,-133 143.94,-129.66 144.06,-136.66"/>
</g>
<!-- cluster_AndOrRunTime_io_b -->
<g id="node4" class="node">
<title>cluster_AndOrRunTime_io_b</title>
<polygon fill="#cccccc" stroke="black" points="87.5,-106 33.5,-106 33.5,-70 87.5,-70 87.5,-106"/>
<text text-anchor="middle" x="60.5" y="-84.3" font-family="Times,serif" font-size="14.00">io_b</text>
</g>
<!-- cluster_AndOrRunTime_io_b&#45;&gt;op_and_6 -->
<g id="edge1" class="edge">
<title>cluster_AndOrRunTime_io_b&#45;&gt;op_and_6:in2</title>
<path fill="none" stroke="black" d="M87.75,-102.42C93.68,-106.18 99.76,-110.46 105,-115 123.83,-131.33 122.24,-141.59 141,-158 144.64,-161.18 149.21,-161.76 152.96,-162.63"/>
<polygon fill="black" stroke="black" points="150.56,-165.19 160,-170 155.62,-160.35 150.56,-165.19"/>
</g>
<!-- cluster_AndOrRunTime_io_b&#45;&gt;op_or_8 -->
<g id="edge4" class="edge">
<title>cluster_AndOrRunTime_io_b&#45;&gt;op_or_8:in2</title>
<path fill="none" stroke="black" d="M87.52,-96.28C103.24,-100.66 124.04,-105.39 143.99,-106.67"/>
<polygon fill="black" stroke="black" points="143.89,-110.17 154,-107 144.12,-103.17 143.89,-110.17"/>
</g>
<!-- cluster_AndOrRunTime_io_useAnd -->
<g id="node5" class="node">
<title>cluster_AndOrRunTime_io_useAnd</title>
<polygon fill="#cccccc" stroke="black" points="105,-52 16,-52 16,-16 105,-16 105,-52"/>
<text text-anchor="middle" x="60.5" y="-30.3" font-family="Times,serif" font-size="14.00">io_useAnd</text>
</g>
<!-- op_and_7 -->
<g id="node10" class="node">
<title>op_and_7</title>
<polygon fill="#d8bfd8" stroke="transparent" points="427,-119 427,-169 519,-169 519,-119 427,-119"/>
<polygon fill="none" stroke="black" points="427,-144 427,-169 450,-169 450,-144 427,-144"/>
<text text-anchor="start" x="432" y="-152.8" font-family="Times,serif" font-size="14.00">●</text>
<polygon fill="none" stroke="black" points="450,-119 450,-169 496,-169 496,-119 450,-119"/>
<text text-anchor="start" x="455" y="-140.3" font-family="Times,serif" font-size="14.00"> and </text>
<polygon fill="none" stroke="black" points="496,-119 496,-169 519,-169 519,-119 496,-119"/>
<text text-anchor="start" x="501" y="-140.3" font-family="Times,serif" font-size="14.00">●</text>
<polygon fill="none" stroke="black" points="427,-119 427,-144 450,-144 450,-119 427,-119"/>
<text text-anchor="start" x="432" y="-127.8" font-family="Times,serif" font-size="14.00">●</text>
</g>
<!-- cluster_AndOrRunTime_io_useAnd&#45;&gt;op_and_7 -->
<g id="edge16" class="edge">
<title>cluster_AndOrRunTime_io_useAnd&#45;&gt;op_and_7:in2</title>
<path fill="none" stroke="black" d="M105.27,-50.79C116.78,-54.82 129.27,-58.87 141,-62 188.16,-74.59 205.31,-60.22 249,-82 268.42,-91.69 265.25,-106 285,-115 339.14,-139.67 360.49,-132.03 415.68,-131.09"/>
<polygon fill="black" stroke="black" points="416.03,-134.59 426,-131 415.97,-127.59 416.03,-134.59"/>
</g>
<!-- op_not_9 -->
<g id="node14" class="node">
<title>op_not_9</title>
<polygon fill="#d8bfd8" stroke="transparent" points="150.5,-22.5 150.5,-47.5 239.5,-47.5 239.5,-22.5 150.5,-22.5"/>
<polygon fill="none" stroke="black" points="151,-22 151,-47 174,-47 174,-22 151,-22"/>
<text text-anchor="start" x="156" y="-30.8" font-family="Times,serif" font-size="14.00">●</text>
<polygon fill="none" stroke="black" points="174,-22 174,-47 217,-47 217,-22 174,-22"/>
<text text-anchor="start" x="179" y="-30.8" font-family="Times,serif" font-size="14.00"> not </text>
<polygon fill="none" stroke="black" points="217,-22 217,-47 240,-47 240,-22 217,-22"/>
<text text-anchor="start" x="222" y="-30.8" font-family="Times,serif" font-size="14.00">●</text>
</g>
<!-- cluster_AndOrRunTime_io_useAnd&#45;&gt;op_not_9 -->
<g id="edge7" class="edge">
<title>cluster_AndOrRunTime_io_useAnd&#45;&gt;op_not_9:in1</title>
<path fill="none" stroke="black" d="M105.16,-34C116.22,-34 128.26,-34 139.91,-34"/>
<polygon fill="black" stroke="black" points="140,-37.5 150,-34 140,-30.5 140,-37.5"/>
</g>
<!-- cluster_AndOrRunTime_io_out -->
<g id="node6" class="node">
<title>cluster_AndOrRunTime_io_out</title>
<polygon fill="#e0ffff" stroke="black" points="889,-123 830,-123 830,-87 889,-87 889,-123"/>
<text text-anchor="middle" x="859.5" y="-101.3" font-family="Times,serif" font-size="14.00">io_out</text>
</g>
<!-- cluster_AndOrRunTime__io_out_T -->
<g id="node7" class="node">
<title>cluster_AndOrRunTime__io_out_T</title>
<polygon fill="none" stroke="black" points="375,-197 293,-197 293,-161 375,-161 375,-197"/>
<text text-anchor="middle" x="334" y="-175.3" font-family="Times,serif" font-size="14.00">_io_out_T</text>
</g>
<!-- cluster_AndOrRunTime__io_out_T&#45;&gt;op_and_7 -->
<g id="edge9" class="edge">
<title>cluster_AndOrRunTime__io_out_T&#45;&gt;op_and_7:in1</title>
<path fill="none" stroke="black" d="M375.27,-164.94C387.85,-161.47 402.09,-158.44 415.98,-157.39"/>
<polygon fill="black" stroke="black" points="416.15,-160.89 426,-157 415.87,-153.9 416.15,-160.89"/>
</g>
<!-- op_and_6&#45;&gt;cluster_AndOrRunTime__io_out_T -->
<g id="edge5" class="edge">
<title>op_and_6:out&#45;&gt;cluster_AndOrRunTime__io_out_T</title>
<path fill="none" stroke="black" d="M242,-196C255.45,-196 269.83,-194.18 283.09,-191.74"/>
<polygon fill="black" stroke="black" points="283.86,-195.15 292.98,-189.77 282.49,-188.29 283.86,-195.15"/>
</g>
<!-- cluster_AndOrRunTime__io_out_T_1 -->
<g id="node9" class="node">
<title>cluster_AndOrRunTime__io_out_T_1</title>
<polygon fill="none" stroke="black" points="661,-156 563,-156 563,-120 661,-120 661,-156"/>
<text text-anchor="middle" x="612" y="-134.3" font-family="Times,serif" font-size="14.00">_io_out_T_1</text>
</g>
<!-- op_or_11 -->
<g id="node17" class="node">
<title>op_or_11</title>
<polygon fill="#d8bfd8" stroke="transparent" points="705,-80 705,-130 786,-130 786,-80 705,-80"/>
<polygon fill="none" stroke="black" points="705.5,-105 705.5,-130 728.5,-130 728.5,-105 705.5,-105"/>
<text text-anchor="start" x="710.5" y="-113.8" font-family="Times,serif" font-size="14.00">●</text>
<polygon fill="none" stroke="black" points="728.5,-80 728.5,-130 763.5,-130 763.5,-80 728.5,-80"/>
<text text-anchor="start" x="733.5" y="-101.3" font-family="Times,serif" font-size="14.00"> or </text>
<polygon fill="none" stroke="black" points="763.5,-80 763.5,-130 786.5,-130 786.5,-80 763.5,-80"/>
<text text-anchor="start" x="768.5" y="-101.3" font-family="Times,serif" font-size="14.00">●</text>
<polygon fill="none" stroke="black" points="705.5,-80 705.5,-105 728.5,-105 728.5,-80 705.5,-80"/>
<text text-anchor="start" x="710.5" y="-88.8" font-family="Times,serif" font-size="14.00">●</text>
</g>
<!-- cluster_AndOrRunTime__io_out_T_1&#45;&gt;op_or_11 -->
<g id="edge13" class="edge">
<title>cluster_AndOrRunTime__io_out_T_1&#45;&gt;op_or_11:in1</title>
<path fill="none" stroke="black" d="M661.01,-123.47C671.65,-121.09 683.1,-119.15 694.31,-118.37"/>
<polygon fill="black" stroke="black" points="694.63,-121.86 704.5,-118 694.38,-114.86 694.63,-121.86"/>
</g>
<!-- op_and_7&#45;&gt;cluster_AndOrRunTime__io_out_T_1 -->
<g id="edge6" class="edge">
<title>op_and_7:out&#45;&gt;cluster_AndOrRunTime__io_out_T_1</title>
<path fill="none" stroke="black" d="M520,-144C530.56,-144 541.79,-143.59 552.63,-142.99"/>
<polygon fill="black" stroke="black" points="553.1,-146.47 562.87,-142.36 552.67,-139.48 553.1,-146.47"/>
</g>
<!-- cluster_AndOrRunTime__io_out_T_2 -->
<g id="node11" class="node">
<title>cluster_AndOrRunTime__io_out_T_2</title>
<polygon fill="none" stroke="black" points="383,-106 285,-106 285,-70 383,-70 383,-106"/>
<text text-anchor="middle" x="334" y="-84.3" font-family="Times,serif" font-size="14.00">_io_out_T_2</text>
</g>
<!-- op_and_10 -->
<g id="node16" class="node">
<title>op_and_10</title>
<polygon fill="#d8bfd8" stroke="transparent" points="427,-43 427,-93 519,-93 519,-43 427,-43"/>
<polygon fill="none" stroke="black" points="427,-68 427,-93 450,-93 450,-68 427,-68"/>
<text text-anchor="start" x="432" y="-76.8" font-family="Times,serif" font-size="14.00">●</text>
<polygon fill="none" stroke="black" points="450,-43 450,-93 496,-93 496,-43 450,-43"/>
<text text-anchor="start" x="455" y="-64.3" font-family="Times,serif" font-size="14.00"> and </text>
<polygon fill="none" stroke="black" points="496,-43 496,-93 519,-93 519,-43 496,-43"/>
<text text-anchor="start" x="501" y="-64.3" font-family="Times,serif" font-size="14.00">●</text>
<polygon fill="none" stroke="black" points="427,-43 427,-68 450,-68 450,-43 427,-43"/>
<text text-anchor="start" x="432" y="-51.8" font-family="Times,serif" font-size="14.00">●</text>
</g>
<!-- cluster_AndOrRunTime__io_out_T_2&#45;&gt;op_and_10 -->
<g id="edge12" class="edge">
<title>cluster_AndOrRunTime__io_out_T_2&#45;&gt;op_and_10:in1</title>
<path fill="none" stroke="black" d="M383.12,-82.91C393.6,-82.09 404.81,-81.42 415.7,-81.14"/>
<polygon fill="black" stroke="black" points="416.05,-84.63 426,-81 415.95,-77.63 416.05,-84.63"/>
</g>
<!-- op_or_8&#45;&gt;cluster_AndOrRunTime__io_out_T_2 -->
<g id="edge10" class="edge">
<title>op_or_8:out&#45;&gt;cluster_AndOrRunTime__io_out_T_2</title>
<path fill="none" stroke="black" d="M237,-120C254.02,-120 271.91,-115.42 287.57,-109.72"/>
<polygon fill="black" stroke="black" points="288.95,-112.94 297.01,-106.06 286.42,-106.41 288.95,-112.94"/>
</g>
<!-- cluster_AndOrRunTime__io_out_T_3 -->
<g id="node13" class="node">
<title>cluster_AndOrRunTime__io_out_T_3</title>
<polygon fill="none" stroke="black" points="383,-52 285,-52 285,-16 383,-16 383,-52"/>
<text text-anchor="middle" x="334" y="-30.3" font-family="Times,serif" font-size="14.00">_io_out_T_3</text>
</g>
<!-- cluster_AndOrRunTime__io_out_T_3&#45;&gt;op_and_10 -->
<g id="edge17" class="edge">
<title>cluster_AndOrRunTime__io_out_T_3&#45;&gt;op_and_10:in2</title>
<path fill="none" stroke="black" d="M383.17,-49.37C393.66,-51.82 404.92,-53.82 415.96,-54.62"/>
<polygon fill="black" stroke="black" points="415.88,-58.12 426,-55 416.14,-51.13 415.88,-58.12"/>
</g>
<!-- op_not_9&#45;&gt;cluster_AndOrRunTime__io_out_T_3 -->
<g id="edge8" class="edge">
<title>op_not_9:out&#45;&gt;cluster_AndOrRunTime__io_out_T_3</title>
<path fill="none" stroke="black" d="M241,-34C251.88,-34 263.49,-34 274.67,-34"/>
<polygon fill="black" stroke="black" points="274.78,-37.5 284.78,-34 274.78,-30.5 274.78,-37.5"/>
</g>
<!-- cluster_AndOrRunTime__io_out_T_4 -->
<g id="node15" class="node">
<title>cluster_AndOrRunTime__io_out_T_4</title>
<polygon fill="none" stroke="black" points="661,-91 563,-91 563,-55 661,-55 661,-91"/>
<text text-anchor="middle" x="612" y="-69.3" font-family="Times,serif" font-size="14.00">_io_out_T_4</text>
</g>
<!-- cluster_AndOrRunTime__io_out_T_4&#45;&gt;op_or_11 -->
<g id="edge11" class="edge">
<title>cluster_AndOrRunTime__io_out_T_4&#45;&gt;op_or_11:in2</title>
<path fill="none" stroke="black" d="M661.05,-86.81C671.69,-89.06 683.14,-90.91 694.33,-91.65"/>
<polygon fill="black" stroke="black" points="694.39,-95.15 704.5,-92 694.63,-88.16 694.39,-95.15"/>
</g>
<!-- op_and_10&#45;&gt;cluster_AndOrRunTime__io_out_T_4 -->
<g id="edge14" class="edge">
<title>op_and_10:out&#45;&gt;cluster_AndOrRunTime__io_out_T_4</title>
<path fill="none" stroke="black" d="M520,-68C530.55,-68 541.78,-68.34 552.62,-68.84"/>
<polygon fill="black" stroke="black" points="552.69,-72.35 562.86,-69.37 553.05,-65.36 552.69,-72.35"/>
</g>
<!-- op_or_11&#45;&gt;cluster_AndOrRunTime_io_out -->
<g id="edge15" class="edge">
<title>op_or_11:out&#45;&gt;cluster_AndOrRunTime_io_out</title>
<path fill="none" stroke="black" d="M787.5,-105C797.95,-105 809.26,-105 819.72,-105"/>
<polygon fill="black" stroke="black" points="819.83,-108.5 829.83,-105 819.83,-101.5 819.83,-108.5"/>
</g>
</g>
</svg>
