<?xml version="1.0" encoding="UTF-8" standalone="no"?>
<?xml-stylesheet href="styles.css" type="text/css"?>
<!DOCTYPE svg PUBLIC "-//W3C//DTD SVG 1.1//EN"
 "http://www.w3.org/Graphics/SVG/1.1/DTD/svg11.dtd">
<!-- Generated by graphviz version 2.43.0 (0)
 -->
<!-- Title: AndOrGenerationTime Pages: 1 -->
<svg width="333pt" height="261pt"
 viewBox="0.00 0.00 333.00 261.00" xmlns="http://www.w3.org/2000/svg" xmlns:xlink="http://www.w3.org/1999/xlink">
<g id="graph0" class="graph" transform="scale(1 1) rotate(0) translate(4 257)">
<title>AndOrGenerationTime</title>
<polygon fill="white" stroke="transparent" points="-4,4 -4,-257 329,-257 329,4 -4,4"/>
<g id="clust1" class="cluster">
<title>cluster_AndOrGenerationTime</title>
<polygon fill="#fff8dc" stroke="black" points="8,-8 8,-245 317,-245 317,-8 8,-8"/>
<text text-anchor="middle" x="162.5" y="-229.8" font-family="Times,serif" font-size="14.00">AndOrGenerationTime</text>
</g>
<!-- cluster_AndOrGenerationTime_clock -->
<g id="node1" class="node">
<title>cluster_AndOrGenerationTime_clock</title>
<polygon fill="#cccccc" stroke="black" points="70,-214 16,-214 16,-178 70,-178 70,-214"/>
<text text-anchor="middle" x="43" y="-192.3" font-family="Times,serif" font-size="14.00">clock</text>
</g>
<!-- cluster_AndOrGenerationTime_reset -->
<g id="node2" class="node">
<title>cluster_AndOrGenerationTime_reset</title>
<polygon fill="#cccccc" stroke="black" points="70,-160 16,-160 16,-124 70,-124 70,-160"/>
<text text-anchor="middle" x="43" y="-138.3" font-family="Times,serif" font-size="14.00">reset</text>
</g>
<!-- cluster_AndOrGenerationTime_io_a -->
<g id="node3" class="node">
<title>cluster_AndOrGenerationTime_io_a</title>
<polygon fill="#cccccc" stroke="black" points="70,-106 16,-106 16,-70 70,-70 70,-106"/>
<text text-anchor="middle" x="43" y="-84.3" font-family="Times,serif" font-size="14.00">io_a</text>
</g>
<!-- op_and_4 -->
<g id="node6" class="node">
<title>op_and_4</title>
<polygon fill="#d8bfd8" stroke="transparent" points="114,-36 114,-86 206,-86 206,-36 114,-36"/>
<polygon fill="none" stroke="black" points="114,-61 114,-86 137,-86 137,-61 114,-61"/>
<text text-anchor="start" x="119" y="-69.8" font-family="Times,serif" font-size="14.00">●</text>
<polygon fill="none" stroke="black" points="137,-36 137,-86 183,-86 183,-36 137,-36"/>
<text text-anchor="start" x="142" y="-57.3" font-family="Times,serif" font-size="14.00"> and </text>
<polygon fill="none" stroke="black" points="183,-36 183,-86 206,-86 206,-36 183,-36"/>
<text text-anchor="start" x="188" y="-57.3" font-family="Times,serif" font-size="14.00">●</text>
<polygon fill="none" stroke="black" points="114,-36 114,-61 137,-61 137,-36 114,-36"/>
<text text-anchor="start" x="119" y="-44.8" font-family="Times,serif" font-size="14.00">●</text>
</g>
<!-- cluster_AndOrGenerationTime_io_a&#45;&gt;op_and_4 -->
<g id="edge2" class="edge">
<title>cluster_AndOrGenerationTime_io_a&#45;&gt;op_and_4:in1</title>
<path fill="none" stroke="black" d="M70.29,-80.1C80.06,-77.67 91.52,-75.38 102.78,-74.45"/>
<polygon fill="black" stroke="black" points="103.16,-77.93 113,-74 102.86,-70.94 103.16,-77.93"/>
</g>
<!-- cluster_AndOrGenerationTime_io_b -->
<g id="node4" class="node">
<title>cluster_AndOrGenerationTime_io_b</title>
<polygon fill="#cccccc" stroke="black" points="70,-52 16,-52 16,-16 70,-16 70,-52"/>
<text text-anchor="middle" x="43" y="-30.3" font-family="Times,serif" font-size="14.00">io_b</text>
</g>
<!-- cluster_AndOrGenerationTime_io_b&#45;&gt;op_and_4 -->
<g id="edge1" class="edge">
<title>cluster_AndOrGenerationTime_io_b&#45;&gt;op_and_4:in2</title>
<path fill="none" stroke="black" d="M70.29,-41.9C80.06,-44.33 91.52,-46.62 102.78,-47.55"/>
<polygon fill="black" stroke="black" points="102.86,-51.06 113,-48 103.16,-44.07 102.86,-51.06"/>
</g>
<!-- cluster_AndOrGenerationTime_io_out -->
<g id="node5" class="node">
<title>cluster_AndOrGenerationTime_io_out</title>
<polygon fill="#e0ffff" stroke="black" points="309,-79 250,-79 250,-43 309,-43 309,-79"/>
<text text-anchor="middle" x="279.5" y="-57.3" font-family="Times,serif" font-size="14.00">io_out</text>
</g>
<!-- op_and_4&#45;&gt;cluster_AndOrGenerationTime_io_out -->
<g id="edge3" class="edge">
<title>op_and_4:out&#45;&gt;cluster_AndOrGenerationTime_io_out</title>
<path fill="none" stroke="black" d="M207,-61C217.61,-61 229.11,-61 239.72,-61"/>
<polygon fill="black" stroke="black" points="239.97,-64.5 249.97,-61 239.97,-57.5 239.97,-64.5"/>
</g>
</g>
</svg>
