<?xml version="1.0" encoding="UTF-8" standalone="no"?>
<?xml-stylesheet href="styles.css" type="text/css"?>
<!DOCTYPE svg PUBLIC "-//W3C//DTD SVG 1.1//EN"
 "http://www.w3.org/Graphics/SVG/1.1/DTD/svg11.dtd">
<!-- Generated by graphviz version 2.43.0 (0)
 -->
<!-- Title: LastConnect Pages: 1 -->
<svg width="351pt" height="211pt"
 viewBox="0.00 0.00 351.00 210.55" xmlns="http://www.w3.org/2000/svg" xmlns:xlink="http://www.w3.org/1999/xlink">
<g id="graph0" class="graph" transform="scale(1 1) rotate(0) translate(4 206.55)">
<title>LastConnect</title>
<polygon fill="white" stroke="transparent" points="-4,4 -4,-206.55 347,-206.55 347,4 -4,4"/>
<g id="clust1" class="cluster">
<title>cluster_LastConnect</title>
<polygon fill="#fff8dc" stroke="black" points="8,-11.55 8,-194.55 335,-194.55 335,-11.55 8,-11.55"/>
<text text-anchor="middle" x="171.5" y="-179.35" font-family="Times,serif" font-size="14.00">LastConnect</text>
</g>
<!-- cluster_LastConnect_clock -->
<g id="node1" class="node">
<title>cluster_LastConnect_clock</title>
<polygon fill="#cccccc" stroke="black" points="86,-163.55 32,-163.55 32,-127.55 86,-127.55 86,-163.55"/>
<text text-anchor="middle" x="59" y="-141.85" font-family="Times,serif" font-size="14.00">clock</text>
</g>
<!-- cluster_LastConnect_reset -->
<g id="node2" class="node">
<title>cluster_LastConnect_reset</title>
<polygon fill="#cccccc" stroke="black" points="86,-109.55 32,-109.55 32,-73.55 86,-73.55 86,-109.55"/>
<text text-anchor="middle" x="59" y="-87.85" font-family="Times,serif" font-size="14.00">reset</text>
</g>
<!-- cluster_LastConnect_io_update -->
<g id="node3" class="node">
<title>cluster_LastConnect_io_update</title>
<polygon fill="#cccccc" stroke="black" points="102,-55.55 16,-55.55 16,-19.55 102,-19.55 102,-55.55"/>
<text text-anchor="middle" x="59" y="-33.85" font-family="Times,serif" font-size="14.00">io_update</text>
</g>
<!-- mux_1143619946 -->
<g id="node5" class="node">
<title>mux_1143619946</title>
<polygon fill="#afeeee" stroke="transparent" points="146,-23.55 146,-73.55 224,-73.55 224,-23.55 146,-23.55"/>
<polygon fill="none" stroke="black" points="146,-48.55 146,-73.55 175,-73.55 175,-48.55 146,-48.55"/>
<text text-anchor="start" x="151" y="-57.35" font-family="Times,serif" font-size="14.00">10</text>
<polygon fill="none" stroke="black" points="175,-23.55 175,-73.55 201,-73.55 201,-23.55 175,-23.55"/>
<text text-anchor="start" x="180" y="-44.85" font-family="Times,serif" font-size="14.00">a?</text>
<polygon fill="none" stroke="black" points="201,-23.55 201,-73.55 224,-73.55 224,-23.55 201,-23.55"/>
<text text-anchor="start" x="206" y="-44.85" font-family="Times,serif" font-size="14.00">●</text>
<polygon fill="none" stroke="black" points="146,-23.55 146,-48.55 175,-48.55 175,-23.55 146,-23.55"/>
<text text-anchor="start" x="155.5" y="-32.35" font-family="Times,serif" font-size="14.00">5</text>
</g>
<!-- cluster_LastConnect_io_update&#45;&gt;mux_1143619946 -->
<g id="edge1" class="edge">
<title>cluster_LastConnect_io_update&#45;&gt;mux_1143619946:select</title>
<path fill="none" stroke="black" d="M96.34,-19.52C130.19,-4.51 176.83,10.94 186.29,-12.55"/>
<polygon fill="black" stroke="black" points="182.86,-13.29 188,-22.55 189.76,-12.1 182.86,-13.29"/>
</g>
<!-- cluster_LastConnect_io_out -->
<g id="node4" class="node">
<title>cluster_LastConnect_io_out</title>
<polygon fill="#e0ffff" stroke="black" points="327,-66.55 268,-66.55 268,-30.55 327,-30.55 327,-66.55"/>
<text text-anchor="middle" x="297.5" y="-44.85" font-family="Times,serif" font-size="14.00">io_out</text>
</g>
<!-- mux_1143619946&#45;&gt;cluster_LastConnect_io_out -->
<g id="edge2" class="edge">
<title>mux_1143619946:out&#45;&gt;cluster_LastConnect_io_out</title>
<path fill="none" stroke="black" d="M225,-48.55C235.61,-48.55 247.11,-48.55 257.72,-48.55"/>
<polygon fill="black" stroke="black" points="257.97,-52.05 267.97,-48.55 257.97,-45.05 257.97,-52.05"/>
</g>
</g>
</svg>
