<?xml version="1.0" encoding="UTF-8" standalone="no"?>
<?xml-stylesheet href="styles.css" type="text/css"?>
<!DOCTYPE svg PUBLIC "-//W3C//DTD SVG 1.1//EN"
 "http://www.w3.org/Graphics/SVG/1.1/DTD/svg11.dtd">
<!-- Generated by graphviz version 2.43.0 (0)
 -->
<!-- Title: ReLU Pages: 1 -->
<svg width="565pt" height="217pt"
 viewBox="0.00 0.00 565.00 217.00" xmlns="http://www.w3.org/2000/svg" xmlns:xlink="http://www.w3.org/1999/xlink">
<g id="graph0" class="graph" transform="scale(1 1) rotate(0) translate(4 213)">
<title>ReLU</title>
<polygon fill="white" stroke="transparent" points="-4,4 -4,-213 561,-213 561,4 -4,4"/>
<g id="clust1" class="cluster">
<title>cluster_ReLU</title>
<polygon fill="#fff8dc" stroke="black" points="8,-8 8,-201 549,-201 549,-8 8,-8"/>
<text text-anchor="middle" x="278.5" y="-185.8" font-family="Times,serif" font-size="14.00">ReLU</text>
</g>
<!-- cluster_ReLU_clock -->
<g id="node1" class="node">
<title>cluster_ReLU_clock</title>
<polygon fill="#cccccc" stroke="black" points="70,-170 16,-170 16,-134 70,-134 70,-170"/>
<text text-anchor="middle" x="43" y="-148.3" font-family="Times,serif" font-size="14.00">clock</text>
</g>
<!-- cluster_ReLU_reset -->
<g id="node2" class="node">
<title>cluster_ReLU_reset</title>
<polygon fill="#cccccc" stroke="black" points="70,-116 16,-116 16,-80 70,-80 70,-116"/>
<text text-anchor="middle" x="43" y="-94.3" font-family="Times,serif" font-size="14.00">reset</text>
</g>
<!-- cluster_ReLU_io_x -->
<g id="node3" class="node">
<title>cluster_ReLU_io_x</title>
<polygon fill="#cccccc" stroke="black" points="70,-62 16,-62 16,-26 70,-26 70,-62"/>
<text text-anchor="middle" x="43" y="-40.3" font-family="Times,serif" font-size="14.00">io_x</text>
</g>
<!-- op_gt_13 -->
<g id="node6" class="node">
<title>op_gt_13</title>
<polygon fill="#d8bfd8" stroke="transparent" points="114,-116 114,-166 195,-166 195,-116 114,-116"/>
<polygon fill="none" stroke="black" points="114.5,-141 114.5,-166 137.5,-166 137.5,-141 114.5,-141"/>
<text text-anchor="start" x="119.5" y="-149.8" font-family="Times,serif" font-size="14.00">●</text>
<polygon fill="none" stroke="black" points="137.5,-116 137.5,-166 172.5,-166 172.5,-116 137.5,-116"/>
<text text-anchor="start" x="142.5" y="-137.3" font-family="Times,serif" font-size="14.00"> gt </text>
<polygon fill="none" stroke="black" points="172.5,-116 172.5,-166 195.5,-166 195.5,-116 172.5,-116"/>
<text text-anchor="start" x="177.5" y="-137.3" font-family="Times,serif" font-size="14.00">●</text>
<polygon fill="none" stroke="black" points="114.5,-116 114.5,-141 137.5,-141 137.5,-116 114.5,-116"/>
<text text-anchor="start" x="121" y="-124.8" font-family="Times,serif" font-size="14.00">0</text>
</g>
<!-- cluster_ReLU_io_x&#45;&gt;op_gt_13 -->
<g id="edge1" class="edge">
<title>cluster_ReLU_io_x&#45;&gt;op_gt_13:in1</title>
<path fill="none" stroke="black" d="M62.91,-62.28C65.43,-65.09 67.87,-68.04 70,-71 92.07,-101.62 75.66,-144.91 103.39,-152.76"/>
<polygon fill="black" stroke="black" points="103.15,-156.25 113.5,-154 104,-149.3 103.15,-156.25"/>
</g>
<!-- mux_616895721 -->
<g id="node8" class="node">
<title>mux_616895721</title>
<polygon fill="#afeeee" stroke="transparent" points="247,-40 247,-90 319,-90 319,-40 247,-40"/>
<polygon fill="none" stroke="black" points="247,-65 247,-90 270,-90 270,-65 247,-65"/>
<text text-anchor="start" x="253.5" y="-73.8" font-family="Times,serif" font-size="14.00">0</text>
<polygon fill="none" stroke="black" points="270,-40 270,-90 296,-90 296,-40 270,-40"/>
<text text-anchor="start" x="275" y="-61.3" font-family="Times,serif" font-size="14.00">a?</text>
<polygon fill="none" stroke="black" points="296,-40 296,-90 319,-90 319,-40 296,-40"/>
<text text-anchor="start" x="301" y="-61.3" font-family="Times,serif" font-size="14.00">●</text>
<polygon fill="none" stroke="black" points="247,-40 247,-65 270,-65 270,-40 247,-40"/>
<text text-anchor="start" x="252" y="-48.8" font-family="Times,serif" font-size="14.00">●</text>
</g>
<!-- cluster_ReLU_io_x&#45;&gt;mux_616895721 -->
<g id="edge4" class="edge">
<title>cluster_ReLU_io_x&#45;&gt;mux_616895721:in2</title>
<path fill="none" stroke="black" d="M70.23,-35.14C81.15,-31.89 94.05,-28.61 106,-27 148.73,-21.25 161.37,-15.78 203,-27 220.51,-31.72 223.35,-45.52 236.01,-50.33"/>
<polygon fill="black" stroke="black" points="235.56,-53.8 246,-52 236.72,-46.9 235.56,-53.8"/>
</g>
<!-- op_lt_14 -->
<g id="node9" class="node">
<title>op_lt_14</title>
<polygon fill="#d8bfd8" stroke="transparent" points="116.5,-40 116.5,-90 192.5,-90 192.5,-40 116.5,-40"/>
<polygon fill="none" stroke="black" points="116.5,-65 116.5,-90 139.5,-90 139.5,-65 116.5,-65"/>
<text text-anchor="start" x="121.5" y="-73.8" font-family="Times,serif" font-size="14.00">●</text>
<polygon fill="none" stroke="black" points="139.5,-40 139.5,-90 169.5,-90 169.5,-40 139.5,-40"/>
<text text-anchor="start" x="144.5" y="-61.3" font-family="Times,serif" font-size="14.00"> lt </text>
<polygon fill="none" stroke="black" points="169.5,-40 169.5,-90 192.5,-90 192.5,-40 169.5,-40"/>
<text text-anchor="start" x="174.5" y="-61.3" font-family="Times,serif" font-size="14.00">●</text>
<polygon fill="none" stroke="black" points="116.5,-40 116.5,-65 139.5,-65 139.5,-40 116.5,-40"/>
<text text-anchor="start" x="123" y="-48.8" font-family="Times,serif" font-size="14.00">0</text>
</g>
<!-- cluster_ReLU_io_x&#45;&gt;op_lt_14 -->
<g id="edge5" class="edge">
<title>cluster_ReLU_io_x&#45;&gt;op_lt_14:in1</title>
<path fill="none" stroke="black" d="M68.48,-62.19C79.02,-68.64 91.97,-74.85 105.28,-77.11"/>
<polygon fill="black" stroke="black" points="105.23,-80.61 115.5,-78 105.84,-73.64 105.23,-80.61"/>
</g>
<!-- cluster_ReLU_io_y -->
<g id="node4" class="node">
<title>cluster_ReLU_io_y</title>
<polygon fill="#e0ffff" stroke="black" points="541,-124 487,-124 487,-88 541,-88 541,-124"/>
<text text-anchor="middle" x="514" y="-102.3" font-family="Times,serif" font-size="14.00">io_y</text>
</g>
<!-- cluster_ReLU__T -->
<g id="node5" class="node">
<title>cluster_ReLU__T</title>
<polygon fill="none" stroke="black" points="310,-153 256,-153 256,-117 310,-117 310,-153"/>
<text text-anchor="middle" x="283" y="-131.3" font-family="Times,serif" font-size="14.00">_T</text>
</g>
<!-- mux_775714843 -->
<g id="node7" class="node">
<title>mux_775714843</title>
<polygon fill="#afeeee" stroke="transparent" points="371,-81 371,-131 443,-131 443,-81 371,-81"/>
<polygon fill="none" stroke="black" points="371,-106 371,-131 394,-131 394,-106 371,-106"/>
<text text-anchor="start" x="377.5" y="-114.8" font-family="Times,serif" font-size="14.00">0</text>
<polygon fill="none" stroke="black" points="394,-81 394,-131 420,-131 420,-81 394,-81"/>
<text text-anchor="start" x="399" y="-102.3" font-family="Times,serif" font-size="14.00">a?</text>
<polygon fill="none" stroke="black" points="420,-81 420,-131 443,-131 443,-81 420,-81"/>
<text text-anchor="start" x="425" y="-102.3" font-family="Times,serif" font-size="14.00">●</text>
<polygon fill="none" stroke="black" points="371,-81 371,-106 394,-106 394,-81 371,-81"/>
<text text-anchor="start" x="376" y="-89.8" font-family="Times,serif" font-size="14.00">●</text>
</g>
<!-- cluster_ReLU__T&#45;&gt;mux_775714843 -->
<g id="edge6" class="edge">
<title>cluster_ReLU__T&#45;&gt;mux_775714843:select</title>
<path fill="none" stroke="black" d="M310.09,-144.53C342.52,-155.12 394.9,-167.6 405.21,-142.15"/>
<polygon fill="black" stroke="black" points="408.71,-142.46 407,-132 401.81,-141.24 408.71,-142.46"/>
</g>
<!-- op_gt_13&#45;&gt;cluster_ReLU__T -->
<g id="edge7" class="edge">
<title>op_gt_13:out&#45;&gt;cluster_ReLU__T</title>
<path fill="none" stroke="black" d="M196.5,-141C212.7,-141 230.59,-139.91 245.79,-138.67"/>
<polygon fill="black" stroke="black" points="246.18,-142.15 255.84,-137.79 245.57,-135.17 246.18,-142.15"/>
</g>
<!-- mux_775714843&#45;&gt;cluster_ReLU_io_y -->
<g id="edge3" class="edge">
<title>mux_775714843:out&#45;&gt;cluster_ReLU_io_y</title>
<path fill="none" stroke="black" d="M444,-106C454.6,-106 466.12,-106 476.65,-106"/>
<polygon fill="black" stroke="black" points="476.79,-109.5 486.79,-106 476.79,-102.5 476.79,-109.5"/>
</g>
<!-- mux_616895721&#45;&gt;mux_775714843 -->
<g id="edge2" class="edge">
<title>mux_616895721:out&#45;&gt;mux_775714843:in2</title>
<path fill="none" stroke="black" d="M320,-65C341.49,-65 344.18,-84.93 359.79,-91.16"/>
<polygon fill="black" stroke="black" points="359.54,-94.67 370,-93 360.78,-87.78 359.54,-94.67"/>
</g>
<!-- op_lt_14&#45;&gt;mux_616895721 -->
<g id="edge8" class="edge">
<title>op_lt_14:out&#45;&gt;mux_616895721:select</title>
<path fill="none" stroke="black" d="M193.5,-65C216.57,-65 216.72,-45.99 239,-40 252.87,-36.27 270.1,-26.93 278.27,-29.98"/>
<polygon fill="black" stroke="black" points="275.26,-31.77 283,-39 281.46,-28.52 275.26,-31.77"/>
</g>
</g>
</svg>
