<?xml version="1.0" encoding="UTF-8" standalone="no"?>
<?xml-stylesheet href="styles.css" type="text/css"?>
<!DOCTYPE svg PUBLIC "-//W3C//DTD SVG 1.1//EN"
 "http://www.w3.org/Graphics/SVG/1.1/DTD/svg11.dtd">
<!-- Generated by graphviz version 2.43.0 (0)
 -->
<!-- Title: Accumulator Pages: 1 -->
<svg width="1066pt" height="225pt"
 viewBox="0.00 0.00 1066.00 224.53" xmlns="http://www.w3.org/2000/svg" xmlns:xlink="http://www.w3.org/1999/xlink">
<g id="graph0" class="graph" transform="scale(1 1) rotate(0) translate(4 220.53)">
<title>Accumulator</title>
<polygon fill="white" stroke="transparent" points="-4,4 -4,-220.53 1062,-220.53 1062,4 -4,4"/>
<g id="clust1" class="cluster">
<title>cluster_Accumulator</title>
<polygon fill="#fff8dc" stroke="black" points="8,-39.53 8,-208.53 1050,-208.53 1050,-39.53 8,-39.53"/>
<text text-anchor="middle" x="529" y="-193.33" font-family="Times,serif" font-size="14.00">Accumulator</text>
</g>
<!-- cluster_Accumulator_clock -->
<g id="node1" class="node">
<title>cluster_Accumulator_clock</title>
<polygon fill="#cccccc" stroke="black" points="70,-166.53 16,-166.53 16,-130.53 70,-130.53 70,-166.53"/>
<text text-anchor="middle" x="43" y="-144.83" font-family="Times,serif" font-size="14.00">clock</text>
</g>
<!-- cluster_Accumulator_reset -->
<g id="node2" class="node">
<title>cluster_Accumulator_reset</title>
<polygon fill="#cccccc" stroke="black" points="70,-98.53 16,-98.53 16,-62.53 70,-62.53 70,-98.53"/>
<text text-anchor="middle" x="43" y="-76.83" font-family="Times,serif" font-size="14.00">reset</text>
</g>
<!-- mux_1160241772 -->
<g id="node11" class="node">
<title>mux_1160241772</title>
<polygon fill="#afeeee" stroke="transparent" points="114,-55.53 114,-105.53 186,-105.53 186,-55.53 114,-55.53"/>
<polygon fill="none" stroke="black" points="114,-80.53 114,-105.53 137,-105.53 137,-80.53 114,-80.53"/>
<text text-anchor="start" x="120.5" y="-89.33" font-family="Times,serif" font-size="14.00">0</text>
<polygon fill="none" stroke="black" points="137,-55.53 137,-105.53 163,-105.53 163,-55.53 137,-55.53"/>
<text text-anchor="start" x="142" y="-76.83" font-family="Times,serif" font-size="14.00">a?</text>
<polygon fill="none" stroke="black" points="163,-55.53 163,-105.53 186,-105.53 186,-55.53 163,-55.53"/>
<text text-anchor="start" x="168" y="-76.83" font-family="Times,serif" font-size="14.00">●</text>
<polygon fill="none" stroke="black" points="114,-55.53 114,-80.53 137,-80.53 137,-55.53 114,-55.53"/>
<text text-anchor="start" x="119" y="-64.33" font-family="Times,serif" font-size="14.00">●</text>
</g>
<!-- cluster_Accumulator_reset&#45;&gt;mux_1160241772 -->
<g id="edge10" class="edge">
<title>cluster_Accumulator_reset&#45;&gt;mux_1160241772:select</title>
<path fill="none" stroke="black" d="M70.2,-63.76C97.67,-47.47 138.16,-27.52 147.86,-44.75"/>
<polygon fill="black" stroke="black" points="144.44,-45.51 150,-54.53 151.28,-44.01 144.44,-45.51"/>
</g>
<!-- cluster_Accumulator_io_in -->
<g id="node3" class="node">
<title>cluster_Accumulator_io_in</title>
<polygon fill="#cccccc" stroke="black" points="418.5,-123.53 364.5,-123.53 364.5,-87.53 418.5,-87.53 418.5,-123.53"/>
<text text-anchor="middle" x="391.5" y="-101.83" font-family="Times,serif" font-size="14.00">io_in</text>
</g>
<!-- op_add_1 -->
<g id="node7" class="node">
<title>op_add_1</title>
<polygon fill="#d8bfd8" stroke="transparent" points="465,-121.53 465,-171.53 557,-171.53 557,-121.53 465,-121.53"/>
<polygon fill="none" stroke="black" points="465,-146.53 465,-171.53 488,-171.53 488,-146.53 465,-146.53"/>
<text text-anchor="start" x="470" y="-155.33" font-family="Times,serif" font-size="14.00">●</text>
<polygon fill="none" stroke="black" points="488,-121.53 488,-171.53 534,-171.53 534,-121.53 488,-121.53"/>
<text text-anchor="start" x="493" y="-142.83" font-family="Times,serif" font-size="14.00"> add </text>
<polygon fill="none" stroke="black" points="534,-121.53 534,-171.53 557,-171.53 557,-121.53 534,-121.53"/>
<text text-anchor="start" x="539" y="-142.83" font-family="Times,serif" font-size="14.00">●</text>
<polygon fill="none" stroke="black" points="465,-121.53 465,-146.53 488,-146.53 488,-121.53 465,-121.53"/>
<text text-anchor="start" x="470" y="-130.33" font-family="Times,serif" font-size="14.00">●</text>
</g>
<!-- cluster_Accumulator_io_in&#45;&gt;op_add_1 -->
<g id="edge9" class="edge">
<title>cluster_Accumulator_io_in&#45;&gt;op_add_1:in2</title>
<path fill="none" stroke="black" d="M418.72,-121.16C429.08,-126.22 441.49,-130.99 453.99,-132.78"/>
<polygon fill="black" stroke="black" points="453.77,-136.28 464,-133.53 454.29,-129.29 453.77,-136.28"/>
</g>
<!-- cluster_Accumulator_io_en -->
<g id="node4" class="node">
<title>cluster_Accumulator_io_en</title>
<polygon fill="#cccccc" stroke="black" points="906,-123.53 852,-123.53 852,-87.53 906,-87.53 906,-123.53"/>
<text text-anchor="middle" x="879" y="-101.83" font-family="Times,serif" font-size="14.00">io_en</text>
</g>
<!-- mux_620385393 -->
<g id="node12" class="node">
<title>mux_620385393</title>
<polygon fill="#afeeee" stroke="transparent" points="962,-68.53 962,-118.53 1034,-118.53 1034,-68.53 962,-68.53"/>
<polygon fill="none" stroke="black" points="962,-93.53 962,-118.53 985,-118.53 985,-93.53 962,-93.53"/>
<text text-anchor="start" x="967" y="-102.33" font-family="Times,serif" font-size="14.00">●</text>
<polygon fill="none" stroke="black" points="985,-68.53 985,-118.53 1011,-118.53 1011,-68.53 985,-68.53"/>
<text text-anchor="start" x="990" y="-89.83" font-family="Times,serif" font-size="14.00">a?</text>
<polygon fill="none" stroke="black" points="1011,-68.53 1011,-118.53 1034,-118.53 1034,-68.53 1011,-68.53"/>
<text text-anchor="start" x="1016" y="-89.83" font-family="Times,serif" font-size="14.00">●</text>
<polygon fill="none" stroke="black" points="962,-68.53 962,-93.53 985,-93.53 985,-68.53 962,-68.53"/>
<text text-anchor="start" x="967" y="-77.33" font-family="Times,serif" font-size="14.00">●</text>
</g>
<!-- cluster_Accumulator_io_en&#45;&gt;mux_620385393 -->
<g id="edge4" class="edge">
<title>cluster_Accumulator_io_en&#45;&gt;mux_620385393:select</title>
<path fill="none" stroke="black" d="M906.19,-118.86C937.15,-133.35 985.79,-151.69 996.06,-129.58"/>
<polygon fill="black" stroke="black" points="999.54,-130.01 998,-119.53 992.67,-128.68 999.54,-130.01"/>
</g>
<!-- cluster_Accumulator_io_out -->
<g id="node5" class="node">
<title>cluster_Accumulator_io_out</title>
<polygon fill="#e0ffff" stroke="black" points="421,-177.53 362,-177.53 362,-141.53 421,-141.53 421,-177.53"/>
<text text-anchor="middle" x="391.5" y="-155.83" font-family="Times,serif" font-size="14.00">io_out</text>
</g>
<!-- cluster_Accumulator_io_out&#45;&gt;op_add_1 -->
<g id="edge7" class="edge">
<title>cluster_Accumulator_io_out&#45;&gt;op_add_1:in1</title>
<path fill="none" stroke="black" d="M421.03,-159.53C431.05,-159.53 442.62,-159.53 453.84,-159.53"/>
<polygon fill="black" stroke="black" points="454,-163.03 464,-159.53 454,-156.03 454,-163.03"/>
</g>
<!-- cluster_Accumulator__acc_T -->
<g id="node6" class="node">
<title>cluster_Accumulator__acc_T</title>
<polygon fill="none" stroke="black" points="663,-170.53 601,-170.53 601,-134.53 663,-134.53 663,-170.53"/>
<text text-anchor="middle" x="632" y="-148.83" font-family="Times,serif" font-size="14.00">_acc_T</text>
</g>
<!-- op_tail_2 -->
<g id="node9" class="node">
<title>op_tail_2</title>
<polygon fill="#d8bfd8" stroke="transparent" points="707,-118.53 707,-168.53 796,-168.53 796,-118.53 707,-118.53"/>
<polygon fill="none" stroke="black" points="707.5,-143.53 707.5,-168.53 730.5,-168.53 730.5,-143.53 707.5,-143.53"/>
<text text-anchor="start" x="712.5" y="-152.33" font-family="Times,serif" font-size="14.00">●</text>
<polygon fill="none" stroke="black" points="730.5,-118.53 730.5,-168.53 773.5,-168.53 773.5,-118.53 730.5,-118.53"/>
<text text-anchor="start" x="735.5" y="-139.83" font-family="Times,serif" font-size="14.00"> tail </text>
<polygon fill="none" stroke="black" points="773.5,-118.53 773.5,-168.53 796.5,-168.53 796.5,-118.53 773.5,-118.53"/>
<text text-anchor="start" x="778.5" y="-139.83" font-family="Times,serif" font-size="14.00">●</text>
<polygon fill="none" stroke="black" points="707.5,-118.53 707.5,-143.53 730.5,-143.53 730.5,-118.53 707.5,-118.53"/>
<text text-anchor="start" x="714" y="-127.33" font-family="Times,serif" font-size="14.00">1</text>
</g>
<!-- cluster_Accumulator__acc_T&#45;&gt;op_tail_2 -->
<g id="edge1" class="edge">
<title>cluster_Accumulator__acc_T&#45;&gt;op_tail_2:in1</title>
<path fill="none" stroke="black" d="M663.02,-154.9C673.21,-155.56 684.89,-156.16 696.23,-156.41"/>
<polygon fill="black" stroke="black" points="696.46,-159.91 706.5,-156.53 696.54,-152.91 696.46,-159.91"/>
</g>
<!-- op_add_1&#45;&gt;cluster_Accumulator__acc_T -->
<g id="edge11" class="edge">
<title>op_add_1:out&#45;&gt;cluster_Accumulator__acc_T</title>
<path fill="none" stroke="black" d="M558,-146.53C568.59,-146.53 580.01,-147.16 590.6,-148.02"/>
<polygon fill="black" stroke="black" points="590.58,-151.53 600.86,-148.93 591.21,-144.56 590.58,-151.53"/>
</g>
<!-- cluster_Accumulator__acc_T_1 -->
<g id="node8" class="node">
<title>cluster_Accumulator__acc_T_1</title>
<polygon fill="none" stroke="black" points="918,-177.53 840,-177.53 840,-141.53 918,-141.53 918,-177.53"/>
<text text-anchor="middle" x="879" y="-155.83" font-family="Times,serif" font-size="14.00">_acc_T_1</text>
</g>
<!-- cluster_Accumulator__acc_T_1&#45;&gt;mux_620385393 -->
<g id="edge8" class="edge">
<title>cluster_Accumulator__acc_T_1&#45;&gt;mux_620385393:in1</title>
<path fill="none" stroke="black" d="M906.36,-141.29C921.92,-130.63 940.68,-117.98 951.77,-111.27"/>
<polygon fill="black" stroke="black" points="953.71,-114.21 961,-106.53 950.51,-107.98 953.71,-114.21"/>
</g>
<!-- op_tail_2&#45;&gt;cluster_Accumulator__acc_T_1 -->
<g id="edge2" class="edge">
<title>op_tail_2:out&#45;&gt;cluster_Accumulator__acc_T_1</title>
<path fill="none" stroke="black" d="M797.5,-143.53C808.08,-143.53 819.3,-144.87 829.89,-146.78"/>
<polygon fill="black" stroke="black" points="829.32,-150.24 839.82,-148.76 830.69,-143.37 829.32,-150.24"/>
</g>
<!-- struct_cluster_Accumulator_acc -->
<g id="node10" class="node">
<title>struct_cluster_Accumulator_acc</title>
<polygon fill="#ffe4b5" stroke="transparent" points="238,-73.03 238,-98.03 318,-98.03 318,-73.03 238,-73.03"/>
<polygon fill="none" stroke="black" points="238,-72.53 238,-97.53 261,-97.53 261,-72.53 238,-72.53"/>
<text text-anchor="start" x="243" y="-81.33" font-family="Times,serif" font-size="14.00">●</text>
<polygon fill="none" stroke="black" points="261,-72.53 261,-97.53 295,-97.53 295,-72.53 261,-72.53"/>
<text text-anchor="start" x="266" y="-81.33" font-family="Times,serif" font-size="14.00">acc</text>
<polygon fill="none" stroke="black" points="295,-72.53 295,-97.53 318,-97.53 318,-72.53 295,-72.53"/>
<text text-anchor="start" x="300" y="-81.33" font-family="Times,serif" font-size="14.00">●</text>
</g>
<!-- struct_cluster_Accumulator_acc&#45;&gt;cluster_Accumulator_io_out -->
<g id="edge5" class="edge">
<title>struct_cluster_Accumulator_acc:out&#45;&gt;cluster_Accumulator_io_out</title>
<path fill="none" stroke="black" d="M319,-84.53C347.64,-84.53 342.03,-111.99 362,-132.53 362.53,-133.07 363.08,-133.63 363.63,-134.18"/>
<polygon fill="black" stroke="black" points="361.4,-136.9 370.98,-141.43 366.32,-131.92 361.4,-136.9"/>
</g>
<!-- struct_cluster_Accumulator_acc&#45;&gt;mux_620385393 -->
<g id="edge6" class="edge">
<title>struct_cluster_Accumulator_acc:out&#45;&gt;mux_620385393:in2</title>
<path fill="none" stroke="black" d="M319,-84.53C338.3,-84.53 342.81,-80.51 362,-78.53 427.58,-71.74 444.07,-68.53 510,-68.53 510,-68.53 510,-68.53 752.5,-68.53 773.48,-68.53 908.04,-78.34 950.76,-80.22"/>
<polygon fill="black" stroke="black" points="950.9,-83.72 961,-80.53 951.11,-76.73 950.9,-83.72"/>
</g>
<!-- mux_1160241772&#45;&gt;struct_cluster_Accumulator_acc -->
<g id="edge12" class="edge">
<title>mux_1160241772:out&#45;&gt;struct_cluster_Accumulator_acc:in</title>
<path fill="none" stroke="black" d="M187,-80.53C205.46,-80.53 212.35,-83.27 226.83,-84.21"/>
<polygon fill="black" stroke="black" points="226.9,-87.71 237,-84.53 227.11,-80.72 226.9,-87.71"/>
</g>
<!-- mux_620385393&#45;&gt;mux_1160241772 -->
<g id="edge3" class="edge">
<title>mux_620385393:out&#45;&gt;mux_1160241772:in2</title>
<path fill="none" stroke="black" d="M1023,-67.53C1023,52.99 873.02,-48.53 752.5,-48.53 390.5,-48.53 390.5,-48.53 390.5,-48.53 276.04,-48.53 133.9,56.82 125.4,-44.43"/>
<polygon fill="black" stroke="black" points="121.9,-44.39 125,-54.53 128.89,-44.67 121.9,-44.39"/>
</g>
</g>
</svg>
