<?xml version="1.0" encoding="UTF-8" standalone="no"?>
<?xml-stylesheet href="styles.css" type="text/css"?>
<!DOCTYPE svg PUBLIC "-//W3C//DTD SVG 1.1//EN"
 "http://www.w3.org/Graphics/SVG/1.1/DTD/svg11.dtd">
<!-- Generated by graphviz version 2.43.0 (0)
 -->
<!-- Title: AndOrGenerationTime Pages: 1 -->
<svg width="322pt" height="261pt"
 viewBox="0.00 0.00 322.00 261.00" xmlns="http://www.w3.org/2000/svg" xmlns:xlink="http://www.w3.org/1999/xlink">
<g id="graph0" class="graph" transform="scale(1 1) rotate(0) translate(4 257)">
<title>AndOrGenerationTime</title>
<polygon fill="white" stroke="transparent" points="-4,4 -4,-257 318,-257 318,4 -4,4"/>
<g id="clust1" class="cluster">
<title>cluster_AndOrGenerationTime</title>
<polygon fill="#fff8dc" stroke="black" points="8,-8 8,-245 306,-245 306,-8 8,-8"/>
<text text-anchor="middle" x="157" y="-229.8" font-family="Times,serif" font-size="14.00">AndOrGenerationTime</text>
</g>
<!-- cluster_AndOrGenerationTime_clock -->
<g id="node1" class="node">
<title>cluster_AndOrGenerationTime_clock</title>
<polygon fill="#cccccc" stroke="black" points="70,-214 16,-214 16,-178 70,-178 70,-214"/>
<text text-anchor="middle" x="43" y="-192.3" font-family="Times,serif" font-size="14.00">clock</text>
</g>
<!-- cluster_AndOrGenerationTime_reset -->
<g id="node2" class="node">
<title>cluster_AndOrGenerationTime_reset</title>
<polygon fill="#cccccc" stroke="black" points="70,-160 16,-160 16,-124 70,-124 70,-160"/>
<text text-anchor="middle" x="43" y="-138.3" font-family="Times,serif" font-size="14.00">reset</text>
</g>
<!-- cluster_AndOrGenerationTime_io_a -->
<g id="node3" class="node">
<title>cluster_AndOrGenerationTime_io_a</title>
<polygon fill="#cccccc" stroke="black" points="70,-106 16,-106 16,-70 70,-70 70,-106"/>
<text text-anchor="middle" x="43" y="-84.3" font-family="Times,serif" font-size="14.00">io_a</text>
</g>
<!-- op_or_5 -->
<g id="node6" class="node">
<title>op_or_5</title>
<polygon fill="#d8bfd8" stroke="transparent" points="114,-36 114,-86 195,-86 195,-36 114,-36"/>
<polygon fill="none" stroke="black" points="114.5,-61 114.5,-86 137.5,-86 137.5,-61 114.5,-61"/>
<text text-anchor="start" x="119.5" y="-69.8" font-family="Times,serif" font-size="14.00">●</text>
<polygon fill="none" stroke="black" points="137.5,-36 137.5,-86 172.5,-86 172.5,-36 137.5,-36"/>
<text text-anchor="start" x="142.5" y="-57.3" font-family="Times,serif" font-size="14.00"> or </text>
<polygon fill="none" stroke="black" points="172.5,-36 172.5,-86 195.5,-86 195.5,-36 172.5,-36"/>
<text text-anchor="start" x="177.5" y="-57.3" font-family="Times,serif" font-size="14.00">●</text>
<polygon fill="none" stroke="black" points="114.5,-36 114.5,-61 137.5,-61 137.5,-36 114.5,-36"/>
<text text-anchor="start" x="119.5" y="-44.8" font-family="Times,serif" font-size="14.00">●</text>
</g>
<!-- cluster_AndOrGenerationTime_io_a&#45;&gt;op_or_5 -->
<g id="edge1" class="edge">
<title>cluster_AndOrGenerationTime_io_a&#45;&gt;op_or_5:in1</title>
<path fill="none" stroke="black" d="M70.15,-80.18C80.15,-77.7 91.92,-75.36 103.47,-74.43"/>
<polygon fill="black" stroke="black" points="103.66,-77.92 113.5,-74 103.36,-70.93 103.66,-77.92"/>
</g>
<!-- cluster_AndOrGenerationTime_io_b -->
<g id="node4" class="node">
<title>cluster_AndOrGenerationTime_io_b</title>
<polygon fill="#cccccc" stroke="black" points="70,-52 16,-52 16,-16 70,-16 70,-52"/>
<text text-anchor="middle" x="43" y="-30.3" font-family="Times,serif" font-size="14.00">io_b</text>
</g>
<!-- cluster_AndOrGenerationTime_io_b&#45;&gt;op_or_5 -->
<g id="edge2" class="edge">
<title>cluster_AndOrGenerationTime_io_b&#45;&gt;op_or_5:in2</title>
<path fill="none" stroke="black" d="M70.15,-41.82C80.15,-44.3 91.92,-46.64 103.47,-47.57"/>
<polygon fill="black" stroke="black" points="103.36,-51.07 113.5,-48 103.66,-44.08 103.36,-51.07"/>
</g>
<!-- cluster_AndOrGenerationTime_io_out -->
<g id="node5" class="node">
<title>cluster_AndOrGenerationTime_io_out</title>
<polygon fill="#e0ffff" stroke="black" points="298,-79 239,-79 239,-43 298,-43 298,-79"/>
<text text-anchor="middle" x="268.5" y="-57.3" font-family="Times,serif" font-size="14.00">io_out</text>
</g>
<!-- op_or_5&#45;&gt;cluster_AndOrGenerationTime_io_out -->
<g id="edge3" class="edge">
<title>op_or_5:out&#45;&gt;cluster_AndOrGenerationTime_io_out</title>
<path fill="none" stroke="black" d="M196.5,-61C206.95,-61 218.26,-61 228.72,-61"/>
<polygon fill="black" stroke="black" points="228.83,-64.5 238.83,-61 228.83,-57.5 228.83,-64.5"/>
</g>
</g>
</svg>
