<?xml version="1.0" encoding="UTF-8" standalone="no"?>
<?xml-stylesheet href="styles.css" type="text/css"?>
<!DOCTYPE svg PUBLIC "-//W3C//DTD SVG 1.1//EN"
 "http://www.w3.org/Graphics/SVG/1.1/DTD/svg11.dtd">
<!-- Generated by graphviz version 2.43.0 (0)
 -->
<!-- Title: ReLU Pages: 1 -->
<svg width="436pt" height="207pt"
 viewBox="0.00 0.00 436.00 207.00" xmlns="http://www.w3.org/2000/svg" xmlns:xlink="http://www.w3.org/1999/xlink">
<g id="graph0" class="graph" transform="scale(1 1) rotate(0) translate(4 203)">
<title>ReLU</title>
<polygon fill="white" stroke="transparent" points="-4,4 -4,-203 432,-203 432,4 -4,4"/>
<g id="clust1" class="cluster">
<title>cluster_ReLU</title>
<polygon fill="#fff8dc" stroke="black" points="8,-8 8,-191 420,-191 420,-8 8,-8"/>
<text text-anchor="middle" x="214" y="-175.8" font-family="Times,serif" font-size="14.00">ReLU</text>
</g>
<!-- cluster_ReLU_clock -->
<g id="node1" class="node">
<title>cluster_ReLU_clock</title>
<polygon fill="#cccccc" stroke="black" points="70,-160 16,-160 16,-124 70,-124 70,-160"/>
<text text-anchor="middle" x="43" y="-138.3" font-family="Times,serif" font-size="14.00">clock</text>
</g>
<!-- cluster_ReLU_reset -->
<g id="node2" class="node">
<title>cluster_ReLU_reset</title>
<polygon fill="#cccccc" stroke="black" points="70,-106 16,-106 16,-70 70,-70 70,-106"/>
<text text-anchor="middle" x="43" y="-84.3" font-family="Times,serif" font-size="14.00">reset</text>
</g>
<!-- cluster_ReLU_io_x -->
<g id="node3" class="node">
<title>cluster_ReLU_io_x</title>
<polygon fill="#cccccc" stroke="black" points="70,-52 16,-52 16,-16 70,-16 70,-52"/>
<text text-anchor="middle" x="43" y="-30.3" font-family="Times,serif" font-size="14.00">io_x</text>
</g>
<!-- mux_616895721 -->
<g id="node5" class="node">
<title>mux_616895721</title>
<polygon fill="#afeeee" stroke="transparent" points="242,-33 242,-83 314,-83 314,-33 242,-33"/>
<polygon fill="none" stroke="black" points="242,-58 242,-83 265,-83 265,-58 242,-58"/>
<text text-anchor="start" x="248.5" y="-66.8" font-family="Times,serif" font-size="14.00">0</text>
<polygon fill="none" stroke="black" points="265,-33 265,-83 291,-83 291,-33 265,-33"/>
<text text-anchor="start" x="270" y="-54.3" font-family="Times,serif" font-size="14.00">a?</text>
<polygon fill="none" stroke="black" points="291,-33 291,-83 314,-83 314,-33 291,-33"/>
<text text-anchor="start" x="296" y="-54.3" font-family="Times,serif" font-size="14.00">●</text>
<polygon fill="none" stroke="black" points="242,-33 242,-58 265,-58 265,-33 242,-33"/>
<text text-anchor="start" x="247" y="-41.8" font-family="Times,serif" font-size="14.00">●</text>
</g>
<!-- cluster_ReLU_io_x&#45;&gt;mux_616895721 -->
<g id="edge2" class="edge">
<title>cluster_ReLU_io_x&#45;&gt;mux_616895721:in2</title>
<path fill="none" stroke="black" d="M70.01,-32.03C100.73,-30.15 153.3,-28.37 198,-34 213.6,-35.96 219.11,-41.78 230.7,-44.07"/>
<polygon fill="black" stroke="black" points="230.72,-47.58 241,-45 231.36,-40.61 230.72,-47.58"/>
</g>
<!-- op_lt_15 -->
<g id="node6" class="node">
<title>op_lt_15</title>
<polygon fill="#d8bfd8" stroke="transparent" points="114,-47 114,-97 190,-97 190,-47 114,-47"/>
<polygon fill="none" stroke="black" points="114,-72 114,-97 137,-97 137,-72 114,-72"/>
<text text-anchor="start" x="119" y="-80.8" font-family="Times,serif" font-size="14.00">●</text>
<polygon fill="none" stroke="black" points="137,-47 137,-97 167,-97 167,-47 137,-47"/>
<text text-anchor="start" x="142" y="-68.3" font-family="Times,serif" font-size="14.00"> lt </text>
<polygon fill="none" stroke="black" points="167,-47 167,-97 190,-97 190,-47 167,-47"/>
<text text-anchor="start" x="172" y="-68.3" font-family="Times,serif" font-size="14.00">●</text>
<polygon fill="none" stroke="black" points="114,-47 114,-72 137,-72 137,-47 114,-47"/>
<text text-anchor="start" x="120.5" y="-55.8" font-family="Times,serif" font-size="14.00">0</text>
</g>
<!-- cluster_ReLU_io_x&#45;&gt;op_lt_15 -->
<g id="edge3" class="edge">
<title>cluster_ReLU_io_x&#45;&gt;op_lt_15:in1</title>
<path fill="none" stroke="black" d="M62.99,-52.12C75.26,-63.23 91.11,-76.38 103.03,-82.1"/>
<polygon fill="black" stroke="black" points="102.42,-85.57 113,-85 104.37,-78.85 102.42,-85.57"/>
</g>
<!-- cluster_ReLU_io_y -->
<g id="node4" class="node">
<title>cluster_ReLU_io_y</title>
<polygon fill="#e0ffff" stroke="black" points="412,-76 358,-76 358,-40 412,-40 412,-76"/>
<text text-anchor="middle" x="385" y="-54.3" font-family="Times,serif" font-size="14.00">io_y</text>
</g>
<!-- mux_616895721&#45;&gt;cluster_ReLU_io_y -->
<g id="edge1" class="edge">
<title>mux_616895721:out&#45;&gt;cluster_ReLU_io_y</title>
<path fill="none" stroke="black" d="M315,-58C325.6,-58 337.12,-58 347.65,-58"/>
<polygon fill="black" stroke="black" points="347.79,-61.5 357.79,-58 347.79,-54.5 347.79,-61.5"/>
</g>
<!-- op_lt_15&#45;&gt;mux_616895721 -->
<g id="edge4" class="edge">
<title>op_lt_15:out&#45;&gt;mux_616895721:select</title>
<path fill="none" stroke="black" d="M191,-72C225.46,-72 266.88,-111.77 276.12,-94.24"/>
<polygon fill="black" stroke="black" points="279.63,-94.47 278,-84 272.75,-93.2 279.63,-94.47"/>
</g>
</g>
</svg>
